<svg width="52" height="52" fill="none" xmlns="http://www.w3.org/2000/svg"><circle cx="26" cy="26" r="26" fill="#ECECEC"/><path d="M20.904 38a2.295 2.295 0 01-2.286-2.3c0-1.268 1.026-2.3 2.286-2.3a2.295 2.295 0 012.285 2.3c0 1.268-1.025 2.3-2.285 2.3z" fill="#00A54D"/><path d="M20.904 36.467a.765.765 0 01-.762-.767c0-.423.342-.767.762-.767s.762.344.762.767a.765.765 0 01-.762.767zM31.671 38a2.296 2.296 0 01-2.285-2.3c0-1.268 1.025-2.3 2.285-2.3a2.295 2.295 0 012.286 2.3c0 1.268-1.026 2.3-2.286 2.3z" fill="#00A54D"/><path d="M31.671 36.467a.765.765 0 01-.762-.767c0-.423.342-.767.762-.767s.762.344.762.767a.765.765 0 01-.762.767zm2.407-3.834c0 .43-.335.767-.761.767H18.74a2.29 2.29 0 01-2.285-2.3 2.27 2.27 0 011.98-2.27c.092-.03.199-.03.305-.03.183 0 .366.077.488.2l-.457 1.333h-.03a.757.757 0 00-.763.767c0 .43.336.767.762.767h14.577c.426 0 .761.337.761.766zM16.056 18.068c.048.062.869.435 1.695.8.003-.066.011-.132-.004-.2l-.67-3.066a.762.762 0 00-.744-.602h-4.571a.764.764 0 00-.762.767c0 .423.34.766.762.766h3.958l.336 1.535z" fill="#00A54D"/><path d="M34.078 32.633c0 .43-.335.767-.761.767H26.15v-1.533h7.167c.426 0 .761.337.761.766zm2.774-14.26a.749.749 0 00-.61-.306H16.06l2.377 10.764.335 1.502h14.424c.335 0 .64-.23.731-.552l3.047-10.733a.809.809 0 00-.121-.675z" fill="#00A54D"/><path d="M36.973 19.048L33.926 29.78a.769.769 0 01-.731.552H26.15V18.067h10.092a.75.75 0 01.61.306.809.809 0 01.121.675z" fill="#00A54D"/></svg>