<svg width="52" height="52" fill="none" xmlns="http://www.w3.org/2000/svg"><circle cx="26" cy="26" r="26" fill="#ECECEC"/><path d="M39 29.919a8.106 8.106 0 00-4.445-7.218c-.083 5.948-4.906 10.771-10.854 10.854A8.106 8.106 0 0030.92 38a8.052 8.052 0 004.112-1.123l3.934 1.088-1.088-3.934A8.052 8.052 0 0039 29.919z" fill="#00A54D"/><path d="M33.092 22.546c0-5.264-4.282-9.546-9.546-9.546C18.282 13 14 17.282 14 22.546c0 1.715.457 3.386 1.324 4.852l-1.289 4.659 4.659-1.289a9.516 9.516 0 004.852 1.324c5.264 0 9.546-4.282 9.546-9.546zM22.08 20.324h-1.465a2.933 2.933 0 012.93-2.93 2.933 2.933 0 012.93 2.93 2.94 2.94 0 01-.953 2.162l-1.245 1.14v1.142h-1.464V22.98l1.72-1.575a1.466 1.466 0 00-.988-2.546c-.808 0-1.465.658-1.465 1.465zm.733 5.908h1.464v1.465h-1.464v-1.465z" fill="#00A54D"/></svg>